<svg xmlns="http://www.w3.org/2000/svg" viewBox="0 0 729.01 133.1"><defs><style>.cls-1{fill:#fff;}.cls-2{fill:#4aa0d5;}</style></defs><g id="Layer_2" data-name="Layer 2"><g id="Layer_1-2" data-name="Layer 1"><path class="cls-1" d="M251.91,80c-2.3-9.3-8-16-17.2-19.8,9.8-8.3,12.2-11.5,13.7-17.6,5.4-21.3-9.1-41.5-31.5-42.2S172,.1,149.61.2a5,5,0,0,0-5,5v125q30.45,0,60.8-.1a98.61,98.61,0,0,0,14.4-1C250,124.2,256.81,100.2,251.91,80Zm-79.7-57c12.6,0,24.9-.3,37.2.1,8.7.3,13,5.1,13.2,13.1.2,8.2-3.9,13.6-12.7,14.1-12.4.7-24.9.2-37.7.2Zm37.4,84.5c-12.3.4-24.6.1-37.5.1V73.3h4c11.1,0,22.3-.2,33.4.1,10.8.3,16.7,6,16.8,15.5C226.51,99.1,219.61,107.1,209.61,107.5Z"/><path class="cls-1" d="M350.81,61.3c-.3-11.2-5.3-21.1-16.6-25.7-17.1-6.9-34.5-6.8-51.3.8C272,41.3,265.51,54.7,268,65.1h22.7c5.1-13.2,16.5-18,28.5-12.1,5.2,2.5,7.7,8.8,4.1,12.7-2.2,2.5-6,4.1-9.4,4.8-7.9,1.8-16,2.7-24,4.3-16.2,3.2-24.1,11.5-26,26.9-2,16.1,6.7,27.7,22.8,30.4.9.2,1.8.7,2.7,1h13c7.7-2.9,15.4-5.8,22.9-8.6.9,1.3,2.2,5.1,3.8,5.2,7.2.6,14.5.3,21.9.3C351,106.9,351.51,84.1,350.81,61.3Zm-28.2,41c-4.1,9-12.4,12.4-22.1,12-4.7-.2-8.8-1.9-10.1-7.1-1.5-5.8.2-11.3,5.1-13.7,4.6-2.2,9.6-3.4,14.5-4.9s9.9-2.5,16.5-4.2C325.21,90.7,325.11,97,322.61,102.3Z"/><path class="cls-1" d="M549.61,61.3c-.3-11.2-5.3-21.1-16.6-25.7-17.1-6.9-34.5-6.8-51.3.8-11,4.9-17.4,18.3-14.9,28.7h22.7c5.1-13.2,16.5-18,28.5-12.1,5.2,2.5,7.7,8.8,4.1,12.7-2.2,2.5-6,4.1-9.3,4.8-7.9,1.8-16,2.7-24,4.3-16.2,3.2-24.1,11.5-26,26.9-2,16.1,6.7,27.7,22.8,30.4.9.2,1.8.7,2.7,1h13l22.8-8.6c.9,1.3,2.2,5.1,3.8,5.2,7.2.6,14.5.3,21.9.3C549.81,106.9,550.31,84.1,549.61,61.3Zm-31.1,45.5a23.25,23.25,0,0,1-19.2,7.5c-4.7-.3-8.8-1.9-10.2-7.1-1.5-6,.3-11.5,5.5-13.9,4.6-2.1,9.6-3.3,14.6-4.7,4.7-1.4,9.5-2.5,14.8-3.8C524.51,92.5,524.51,100.4,518.51,106.8Z"/><path class="cls-1" d="M653.41,61.3c-.3-11.2-5.3-21.1-16.6-25.7-17.1-6.9-34.5-6.8-51.3.8-11,4.9-17.4,18.3-14.9,28.7h22.7c5.1-13.2,16.5-18,28.5-12.1,5.2,2.5,7.7,8.8,4.1,12.7-2.2,2.5-6,4.1-9.4,4.8-7.9,1.8-16,2.7-24,4.3-16.2,3.2-24.1,11.5-26,26.9-2,16.1,6.7,27.7,22.8,30.4.9.2,1.8.7,2.7,1h13c7.7-2.9,15.4-5.8,22.9-8.6.9,1.3,2.2,5.1,3.8,5.2,7.2.6,14.5.3,21.9.3C653.61,106.9,654.11,84.1,653.41,61.3Zm-49.7,53.1c-6.1-.2-9.8-2.8-10.9-7.5-1.3-6.1.6-11.2,5.9-13.8a54.33,54.33,0,0,1,9.8-3.5c6.3-1.7,12.8-3.1,19.1-4.7C630.11,102.3,620,115,603.71,114.4Z"/><path class="cls-1" d="M450.71,109.1v20.7h-83.4c0-6.3-.1-12.7.1-19,0-1.2,1.5-2.5,2.4-3.6,14.1-16.2,28.3-32.5,42.5-48.7,1-1.2,2-2.4,3.7-4.5h-45.3V33.9h78.7c0,6.6.2,13-.1,19.4-.1,1.5-1.6,3.1-2.8,4.4Q424.76,82,403,106.1c-.6.7-1.2,1.5-2.4,2.8h50.1Z"/><path class="cls-1" d="M729,31.4V57a88.28,88.28,0,0,0-10.3.1c-13.3,1.5-19.8,8.8-19.8,22.1-.1,15,0,30.1,0,45.1v5.8h-25.5V34.2h23.5c.1,2.9.3,5.8.5,10.1C705.71,33.2,716.31,30,729,31.4Z"/><path class="cls-2" d="M120.89.72H61.48a7.48,7.48,0,0,0-5.31,2.21L2.19,57a7.5,7.5,0,0,0,0,10.59l59.43,59.66a7.51,7.51,0,0,0,10.63,0l54-54.07a7.52,7.52,0,0,0,2.19-5.3V8.23A7.49,7.49,0,0,0,120.89.72ZM108.05,32.09a10.2,10.2,0,0,1-10.77-9.32c-.35-5.73,4.33-10.69,9.46-10.57,6.26-.4,10.17,3.4,10.52,10.22C117.54,27.08,113.13,31.68,108.05,32.09Z"/><path class="cls-1" d="M66.43,89.48a6.48,6.48,0,0,0,5.1,2.2c6.6.7,10.1-2.7,11.3-8.8a19.17,19.17,0,0,0-1.2-11.8,8.69,8.69,0,0,0-12.4-4c-1.1.6-2.3,1.2-3.8,2a8.71,8.71,0,0,1,.7-2.4c4.6-6.3,9.3-12.5,14.2-18.9-6.8,0-13.4.1-20.3.1v1.5c0,6.4.1,12.8.1,19.1,0,2.6,1.1,4.4,3.1,5.1,2.2.8,4-.3,5.5-1.7.7-.6,1.3-1.3,2-1.9a10.14,10.14,0,0,1,1.3-.9c.3.7,1.1,1.5,1,2.1a8.32,8.32,0,0,1-7.3,6.4,22.83,22.83,0,0,1-6.9-.7c-4.3-1-5.8-4.7-5.9-8.6-.1-6.8-.1-13.6-.1-20.5H42.63V44h10.2c0-2.8.1-5.5-.1-8.2,0-.6-.9-1.1-1.3-1.7a9.59,9.59,0,0,1-1.2-2.7c3,0,6-1.1,8.7.5a2.65,2.65,0,0,1,1.1,1.8c.1,3.3.1,6.6.1,10.1h2c7.2,0,14.5.1,21.7-.2a5.6,5.6,0,0,1,5.6,2.8c-5.3,5.3-10.5,10.6-15.8,15.9,4.1-.9,7.4.6,10.6,2.7s4.9,5.4,5.7,9.1a21.56,21.56,0,0,1-.2,10.1c-1.6,6-5.5,9.5-11.4,10.8a20.83,20.83,0,0,1-11.6-.6c-3.8-1.3-7-6.6-6.3-10.5a4.33,4.33,0,0,1,4.2-3.3,4.16,4.16,0,0,1,4.4,2.9C69.43,86.18,68.73,88.18,66.43,89.48Z"/></g></g></svg>