<svg xmlns="http://www.w3.org/2000/svg" viewBox="0 0 883.03 162.24"><defs><style>.cls-1{fill:#2d7ef7;}</style></defs><g id="Layer_2" data-name="Layer 2"><g id="Layer_1-2" data-name="Layer 1"><path class="cls-1" d="M162.28,76.35q0-35.62,0-71.26c0-.69,0-1.38,0-2.06a3.16,3.16,0,0,0-2.71-3,9.45,9.45,0,0,0-1.41,0H95.36a3.11,3.11,0,0,0-3.1,3,3.22,3.22,0,0,0,3,3.3c.43,0,.87,0,1.3,0h53.4a2.27,2.27,0,0,1,1.19.12,6.4,6.4,0,0,1-.45.56q-5.53,5.56-11.06,11.13a2.85,2.85,0,0,1-2.16.84c-2.14,0-4.29,0-6.43,0q-52.9,0-105.8,0a3.64,3.64,0,0,1-2.81-1.14c-3.49-3.53-7-7-10.55-10.55a1.52,1.52,0,0,1-.6-.92l.7,0H58.61c2.76,0,5.52,0,8.28,0a3.16,3.16,0,0,0,0-6.32c-.29,0-.58,0-.87,0H3.17A2.71,2.71,0,0,0,.35,2.11,5.62,5.62,0,0,0,.08,3.93C.05,6.51,0,9.08,0,11.66V91.19c0,.33,0,.65,0,1a3.92,3.92,0,0,0,1.48,3c3,2.51,6,5.07,9,7.62q13,11.14,26.08,22.29,15.28,13.07,30.59,26.09c3.89,3.32,7.78,6.66,11.69,10,1.71,1.44,2.94,1.43,4.67,0,.85-.68,1.66-1.41,2.49-2.12L117.72,132Q139,113.84,160.23,95.71a5.38,5.38,0,0,0,2.08-4.44C162.25,86.3,162.28,81.32,162.28,76.35ZM6.5,87.31V11.2c.42-.11.57.2.75.39q5.34,5.6,10.88,11a3,3,0,0,1,.94,2.33q0,9.86,0,19.71,0,17.7,0,35.4c0,.36,0,.72,0,1.09a1.27,1.27,0,0,1-.81,1.18l-11.14,5A.76.76,0,0,1,6.5,87.31ZM78,151.73l-.2.08a.18.18,0,0,1-.1,0c-.17-.12-.35-.25-.52-.39L9.23,93.47a1.85,1.85,0,0,1,.85-.52c3.5-1.6,7-3.16,10.5-4.8a1.67,1.67,0,0,1,2.05.31q14.16,12,28.36,24,12.65,10.69,25.25,21.42c2.1,1.78,1.69,1.3,1.7,3.66,0,4.36,0,8.72,0,13.08Zm4.25-23c-.11.09-.21.2-.33.29-.68.54-.81.55-1.49,0-1.78-1.49-3.55-3-5.33-4.5L41.32,95.92,26.77,83.61c-.22-.19-.43-.4-.65-.58a1.9,1.9,0,0,1-.72-1.62c0-2.22,0-4.43,0-6.65v-48c0-1.4-.21-1.36,1.34-1.36H135.47c1.65,0,1.46-.11,1.47,1.46V80.31a9.92,9.92,0,0,1,0,1.09,2.59,2.59,0,0,1-1,1.86q-7.87,6.63-15.72,13.3Zm2.36,23.15a1.34,1.34,0,0,1-.23-1c0-4.65,0-9.3,0-13.94a3.14,3.14,0,0,1,1.2-2.64q23.13-19.53,46.23-39.11c2.68-2.28,5.38-4.54,8.06-6.82A1.26,1.26,0,0,1,141.3,88c3.89,1.78,7.79,3.53,11.89,5.39ZM154.21,86.8c-3.28-1.47-6.55-3-9.84-4.4a1.66,1.66,0,0,1-1.12-1.76c0-2.58,0-5.15,0-7.73V29.68c0-1.7,0-3.41,0-5.12a2.22,2.22,0,0,1,.63-1.67l11.57-11.53a.52.52,0,0,1,.18-.1l.1,0s.06,0,.06.08a3.11,3.11,0,0,1,0,.43c0,25.15,0,50.3,0,75.69C155.19,87.21,154.69,87,154.21,86.8Z"/><path class="cls-1" d="M81.18,0a3.18,3.18,0,0,1,3.14,3.21A3.18,3.18,0,0,1,78,3.17,3.23,3.23,0,0,1,81.18,0Z"/><path class="cls-1" d="M397,53c11.77-11.11,33.67-12.39,43,2.34a15.85,15.85,0,0,0,1.44-1.24c8.44-9.45,19.08-11.19,30.78-8.5a18.94,18.94,0,0,1,13.7,11.78,31.34,31.34,0,0,1,2.59,12.17q.11,24.8.09,49.6c0,3.32-.1,3.35-3.55,3.41s-6.75,0-10.12,0c-3.59-.05-3.65-.09-3.65-3.81,0-14.77,0-29.54,0-44.31a26.5,26.5,0,0,0-.58-6.69c-1.21-4.72-4.06-7.5-8.94-8.19a21.3,21.3,0,0,0-7.17-.12C447.48,60.8,443.05,66,443,73.21c0,14.94,0,29.87,0,44.8,0,4.47,0,4.48-4.44,4.51-3.21,0-6.43-.15-9.63,0-2.63.16-3.42-1-3.18-3.37.09-1,0-1.92,0-2.88q0-20,0-40a37.5,37.5,0,0,0-.6-7.18c-1.11-5.73-4.13-8.72-9.82-9.7a21,21,0,0,0-8.13.23c-6.57,1.48-10.06,5.83-10.06,12.57q0,22.16,0,44.31c0,1.13-.06,2.25,0,3.37.11,1.79-.55,2.64-2.46,2.6-4.18-.08-8.35,0-12.53,0-1.55,0-2.42-.57-2.35-2.24,0-1,0-1.93,0-2.89V50.93c0-.81.05-1.61,0-2.41-.14-1.88.76-2.57,2.56-2.54,3.54,0,7.07.13,10.6,0,2.41-.12,3.61.66,3.6,3.16A37.3,37.3,0,0,0,397,53Z"/><path class="cls-1" d="M278.27,71.32q0,23.36,0,46.71c0,4.45,0,4.46-4.47,4.49-3.37,0-6.74,0-10.11,0s-3.45-.11-3.46-3.51c0-11.24,0-22.47,0-33.71,0-2.09,0-4.17,0-6.26a1.8,1.8,0,0,0-2-2.06c-.48,0-1,0-1.44,0-13,0-26,0-39,0-3.5,0-3.56.1-3.57,3.92,0,12,0,24.08,0,36.12,0,1.12,0,2.25,0,3.37,0,1.33-.46,2.13-1.92,2.13q-7,0-14,0c-1.45,0-2-.75-2-2.09,0-1.12,0-2.25,0-3.37q0-46,0-92c0-.49,0-1,0-1.45.08-4.13.08-4.15,4.3-4.18,3.38,0,6.75,0,10.12,0s3.45.1,3.46,3.51c0,10.76,0,21.52,0,32.27,0,8.1-.93,7.07,7.25,7.11,11.07,0,22.15,0,33.23,0,6.11,0,5.59.29,5.6-5.86,0-10.91,0-21.83,0-32.75,0-4.24.05-4.26,4.15-4.3,3.37,0,6.74,0,10.11,0,3.7.05,3.77.08,3.78,3.71,0,10.12,0,20.23,0,30.34Z"/><path class="cls-1" d="M647.59,62.9c-7.3-18.69-28.5-24.44-44.3-12.11-.56.45-1.06,1.29-2.16.45V45.62c0-9.62,0-19.25,0-28.87,0-2.22-.64-3.22-3-3.13-3.52.14-7.06,0-10.58,0-3.7.05-3.71.08-3.8,3.68,0,1,0,1.93,0,2.89q0,46.92,0,93.84c0,2.67-1.2,6.06.71,7.82s5.2.57,7.89.6c6.77.08,6.77,0,8.16-6.83a17.52,17.52,0,0,1,1.57,1.08c14.7,13,35.81,8.78,44.43-8.78a46.66,46.66,0,0,0,4.32-16.66C651.77,81.62,651.17,72.06,647.59,62.9ZM631.77,98.66c-2,6.12-6.23,10.06-12.91,10.69-6.47.61-12.07-1.06-16-6.64a8.62,8.62,0,0,1-1.72-5.37c.09-4.33,0-8.67,0-13,0-4,.2-8,0-12-.33-5,2.24-8.23,6.07-10.67,9.33-5.93,21.35-1.87,24.71,8.6A45.74,45.74,0,0,1,631.77,98.66Z"/><path class="cls-1" d="M726.28,95.91c0-8.5.07-17,0-25.5-.14-12.73-7.14-21.74-19.4-24.75a41.8,41.8,0,0,0-25.51,1.55,28.88,28.88,0,0,0-9.72,6.09,21.45,21.45,0,0,0-6.63,12c-.33,1.93.18,3.06,2.44,3,3.53-.09,7.07-.14,10.59,0,2.49.11,4.12-.26,4.77-3.18.72-3.17,3.26-5.08,6.2-6.26a18.06,18.06,0,0,1,11.79-.43A10.15,10.15,0,0,1,708.12,66a27.82,27.82,0,0,1,.87,6.17c.13,3.35-.11,3.57-3.44,3.63-5.13.08-10.27-.16-15.38.4-5.95.66-11.68,2.08-16.77,5.39-14.11,9.2-13.84,30.25.8,38.54,10.62,6,21.44,5.68,31.75-1.35,1-.69,1.72-1.93,3.17-2,1.24.86.9,2.33,1.35,3.48s1.07,2.23,2.68,2.21c5.26,0,10.51,0,16.3,0C725.68,113.55,726.31,104.69,726.28,95.91Zm-21.87,10.21c-5,3.42-10.45,4.79-16.38,3.19a9.53,9.53,0,0,1-7.35-8A10.6,10.6,0,0,1,684.46,91a15.91,15.91,0,0,1,7.39-3.24c4.74-1,9.54-.82,14.34-.89,2,0,3,.61,2.86,2.74-.11,1.6,0,3.2,0,5.59A10.28,10.28,0,0,1,704.41,106.12Z"/><path class="cls-1" d="M836.15,89.74c2.4.12,4.82,0,7.22,0h36.09c1.75,0,3.59.36,3.57-2.46,0-7.56-.16-15.1-2.7-22.32s-6.75-13.12-13.64-16.75C853.54,41.3,833,43,822.32,59.25a42.39,42.39,0,0,0-6.66,19.36c-.94,9.06-.45,18,3.66,26.32,7.49,15.15,22.4,20.63,37.79,18.92,9.27-1,17.22-4.8,23.22-12.21,1.06-1.32,1.36-2.32-.11-3.62-2.5-2.23-4.86-4.64-8.2-7.85a18.1,18.1,0,0,1-1.84,2.8c-5.29,5.4-11.82,7.47-19.25,6.89a19.67,19.67,0,0,1-17.59-17.07C833.05,90.39,833.86,89.62,836.15,89.74Zm13.56-31c10.54-.43,16.14,7.6,16,18.24h-32C834,66.41,840.71,59.05,849.71,58.69Z"/><path class="cls-1" d="M524,89.78c2.25-.07,4.49,0,6.74,0h36.57c1.77,0,3.57.33,3.55-2.48,0-7.56-.16-15.1-2.71-22.32-2.91-8.23-7.95-14.66-16.26-18-16.21-6.43-36.95-1.26-45.11,18.63A50.31,50.31,0,0,0,505,99.11c3.5,12.38,11.75,20.34,24.24,23.7a40.8,40.8,0,0,0,20.93.11,32.48,32.48,0,0,0,18-11.29c1.07-1.34,1.31-2.34-.14-3.63-2.5-2.23-4.86-4.63-7.68-7.35-4.15,4.6-8.68,7.73-14.43,8.89-12,2.45-22.95-4.74-24.65-16.3C520.83,90.2,521.05,89.87,524,89.78Zm12.22-31C547.18,58,553.08,64.15,553.44,77H521.89C520.94,68.2,527.94,59.33,536.23,58.76Z"/><path class="cls-1" d="M365.15,75.53a38.31,38.31,0,0,0-1-5.18c-4-15.1-16.37-25.26-31.53-25.86-17.27-.68-30.13,7.57-35.55,23a52,52,0,0,0-1.26,29.39c3.55,15.34,13.93,25,29.46,27,17.17,2.13,33.66-6,38.95-25.88a54.17,54.17,0,0,0,1.65-14A50.8,50.8,0,0,0,365.15,75.53ZM345.51,99.81c-2.64,6.44-7.74,10-15,10.12-7.4.15-12.52-3.29-15.8-9.71-2.54-5-2.93-10.43-2.89-15.92.07-4.82.43-9.59,2.21-14.15,2.78-7.14,8.16-11.23,15.1-11.42,7.78-.2,13.68,3.33,16.61,10.64A39.38,39.38,0,0,1,345.51,99.81Z"/><path class="cls-1" d="M794.23,69.24a21.51,21.51,0,0,0-2.41,0c-3.61.4-6.53.2-7.09-4.58-.26-2.14-2.26-3.87-4.31-5a16.63,16.63,0,0,0-16.55.17,7.81,7.81,0,0,0-4.08,7.65c.13,3.25,2,5.31,4.89,6.55a53.81,53.81,0,0,0,10.09,3.12,93.55,93.55,0,0,1,13,3.64A43.22,43.22,0,0,1,795,84.51c11.83,7.34,10.32,23.75,3.08,30.61-5.52,5.24-12,7.77-19.38,8.65-9.68,1.16-18.93,0-27.24-5.48a24.23,24.23,0,0,1-11-16.26c-.61-3.23-.32-3.6,3-3.66,3.69-.06,7.39,0,11.08,0,1.72,0,2.51.57,2.88,2.36,1.19,5.74,5.22,8.62,10.66,9.74a21.77,21.77,0,0,0,12.33-.71c3.33-1.27,5.78-3.42,6.08-7.31.31-4.06-1.6-6.7-5.16-8.38a53.29,53.29,0,0,0-11.46-3.51,60.8,60.8,0,0,1-16.72-5.9c-14.2-7.86-12.68-25.1-2.59-33.07,8.42-6.65,18-7.92,28.21-6.7a30.21,30.21,0,0,1,17,7.33A21.8,21.8,0,0,1,803,66.39c.26,2.15-.43,3-2.56,2.87S796.31,69.24,794.23,69.24Z"/></g></g></svg>