<svg xmlns="http://www.w3.org/2000/svg" viewBox="0 0 98.01 98.72"><defs><style>.cls-1{fill:#4ba0d4;}.cls-2{fill:#fafcfd;}</style></defs><g id="Layer_2" data-name="Layer 2"><g id="Layer_1-2" data-name="Layer 1"><path class="cls-1" d="M69.71,0H92a5.7,5.7,0,0,1,6,5.9V51.4a6.07,6.07,0,0,1-2,4.5c-13.4,13.6-27,27.2-40.5,40.8-2.7,2.7-6,2.7-8.7,0Q24.31,74,1.91,51.4c-2.7-2.7-2.5-5.9.4-8.8q18.3-18.45,36.8-37c6.6-6.7,4.7-5.5,13.4-5.5C58.21,0,64,0,69.71,0Zm-5.8,44.4c.4-.4.8-.7,1.1-1,3.2-3.1,4-6.8,2.9-11-1.1-3.9-4-5.6-7.7-6.5a22.26,22.26,0,0,0-3.6-.5c-4.9,0-9.8,0-14.7-.1-1.6,0-2.1.6-2.1,2.1V39c0,3.1,0,3.1-3.1,3.5-5.3.8-8.9,3.7-9.7,8.2a18.43,18.43,0,0,0,0,6.2c.6,4.8.6,4.8,5.5,4.8h.6c2.2,0,2.6-.5,1.8-2.5a12.74,12.74,0,0,1-1.1-5.4,4.64,4.64,0,0,1,3.8-4.7c2-.5,2.3-.3,2.3,1.8V66.3c0,2.6.4,3.1,3,3.1,3,0,6-.2,9,0,3.3.2,6.3-.7,9.4-1.7a13.1,13.1,0,0,0,7.4-5.9C72.21,55.6,70.51,49,63.91,44.4Zm10.4-27.9A7.53,7.53,0,0,0,82,24c3.9,0,7.5-3.5,7.5-7.2-.1-5-3-8.1-7.7-8.1A7.68,7.68,0,0,0,74.31,16.5Z"/><path class="cls-2" d="M63.91,44.4c6.6,4.6,8.3,11.2,4.8,17.4a13.1,13.1,0,0,1-7.4,5.9,24.87,24.87,0,0,1-9.4,1.7c-3-.2-6,0-9,0-2.5,0-3-.4-3-3.1V50.9c0-2.1-.3-2.3-2.3-1.8a4.64,4.64,0,0,0-3.8,4.7,12.44,12.44,0,0,0,1.1,5.4c.8,2,.5,2.4-1.8,2.5h-.6c-4.9,0-4.9,0-5.5-4.8a25.72,25.72,0,0,1,0-6.2c.8-4.5,4.4-7.4,9.7-8.2,3.1-.5,3.1-.5,3.1-3.5V27.4c0-1.5.5-2.2,2.1-2.1,4.9.1,9.8,0,14.7.1a14.87,14.87,0,0,1,3.6.5c3.6.9,6.6,2.7,7.7,6.5,1.1,4.2.3,7.9-2.9,11C64.71,43.7,64.31,44,63.91,44.4Zm-16.5,11v5.4c0,.6-.2,1.4.7,1.4,3.7-.1,7.4.5,10.9-1.1,2.8-1.2,4-3.8,3.4-7.2a5.39,5.39,0,0,0-5.1-5c-2.9-.3-5.7-.2-8.6-.4-1.1-.1-1.4.4-1.4,1.4A50.93,50.93,0,0,1,47.41,55.4Zm0-18.5v4c0,.5-.1,1.3.6,1.2,3.4-.1,6.9.7,10.1-.8,2.1-1,2.9-3.4,2.4-6-.4-2.1-1.7-3-4.2-3.2-2-.1-4-.3-6-.3-3.3,0-2.8-.3-2.8,2.7A19.27,19.27,0,0,0,47.41,36.9Z"/><path class="cls-2" d="M74.31,16.5a7.47,7.47,0,0,1,7.5-7.7c4.7,0,7.7,3,7.7,8.1,0,3.7-3.6,7.1-7.5,7.2A7.68,7.68,0,0,1,74.31,16.5Z"/><path class="cls-1" d="M47.41,55.4V50c0-1,.3-1.5,1.4-1.4,2.9.1,5.8.1,8.6.4a5.31,5.31,0,0,1,5.1,5c.5,3.3-.7,5.9-3.4,7.2-3.5,1.6-7.2,1-10.9,1.1-.9,0-.7-.8-.7-1.4C47.41,59,47.41,57.2,47.41,55.4Z"/><path class="cls-1" d="M47.41,36.9V34.5c0-3-.5-2.7,2.8-2.7q3,0,6,.3c2.6.2,3.8,1.2,4.2,3.2.6,2.6-.3,5.1-2.4,6-3.2,1.5-6.7.7-10.1.8-.8,0-.6-.7-.6-1.2C47.41,39.5,47.41,38.2,47.41,36.9Z"/></g></g></svg>