<?xml version="1.0" encoding="utf-8"?>
<!-- Generator: Adobe Illustrator 25.0.1, SVG Export Plug-In . SVG Version: 6.00 Build 0)  -->
<svg version="1.1" id="Layer_1" xmlns="http://www.w3.org/2000/svg" xmlns:xlink="http://www.w3.org/1999/xlink" x="0px" y="0px"
	 viewBox="0 0 729 133.1" style="enable-background:new 0 0 729 133.1;" xml:space="preserve">
<style type="text/css">
	.st0{fill:#282B30;}
	.st1{fill:#4BA0D4;}
	.st2{fill:#FAFCFD;}
</style>
<g id="Layer_2_1_">
	<g id="Layer_1-2">
		<path class="st0" d="M245.1,80c-2.3-9.3-8-16-17.2-19.8c9.8-8.3,12.2-11.5,13.7-17.6c5.4-21.3-9.1-41.5-31.5-42.2
			s-44.9-0.3-67.3-0.2c-2.8,0-5,2.2-5,5v125c20.3,0,40.6,0,60.8-0.1c4.8,0,9.6-0.3,14.4-1C243.2,124.2,250,100.2,245.1,80z
			 M165.4,23c12.6,0,24.9-0.3,37.2,0.1c8.7,0.3,13,5.1,13.2,13.1c0.2,8.2-3.9,13.6-12.7,14.1c-12.4,0.7-24.9,0.2-37.7,0.2V23z
			 M202.8,107.5c-12.3,0.4-24.6,0.1-37.5,0.1V73.3h4c11.1,0,22.3-0.2,33.4,0.1c10.8,0.3,16.7,6,16.8,15.5
			C219.7,99.1,212.8,107.1,202.8,107.5L202.8,107.5z"/>
		<path class="st0" d="M344,61.3c-0.3-11.2-5.3-21.1-16.6-25.7c-17.1-6.9-34.5-6.8-51.3,0.8c-10.9,4.9-17.4,18.3-14.9,28.7h22.7
			c5.1-13.2,16.5-18,28.5-12.1c5.2,2.5,7.7,8.8,4.1,12.7c-2.2,2.5-6,4.1-9.4,4.8c-7.9,1.8-16,2.7-24,4.3
			c-16.2,3.2-24.1,11.5-26,26.9c-2,16.1,6.7,27.7,22.8,30.4c0.9,0.2,1.8,0.7,2.7,1h13c7.7-2.9,15.4-5.8,22.9-8.6
			c0.9,1.3,2.2,5.1,3.8,5.2c7.2,0.6,14.5,0.3,21.9,0.3C344.2,106.9,344.7,84.1,344,61.3z M315.8,102.3c-4.1,9-12.4,12.4-22.1,12
			c-4.7-0.2-8.8-1.9-10.1-7.1c-1.5-5.8,0.2-11.3,5.1-13.7c4.6-2.2,9.6-3.4,14.5-4.9s9.9-2.5,16.5-4.2
			C318.4,90.7,318.3,97,315.8,102.3z"/>
		<path class="st0" d="M542.8,61.3c-0.3-11.2-5.3-21.1-16.6-25.7c-17.1-6.9-34.5-6.8-51.3,0.8c-11,4.9-17.4,18.3-14.9,28.7h22.7
			c5.1-13.2,16.5-18,28.5-12.1c5.2,2.5,7.7,8.8,4.1,12.7c-2.2,2.5-6,4.1-9.3,4.8c-7.9,1.8-16,2.7-24,4.3
			c-16.2,3.2-24.1,11.5-26,26.9c-2,16.1,6.7,27.7,22.8,30.4c0.9,0.2,1.8,0.7,2.7,1h13l22.8-8.6c0.9,1.3,2.2,5.1,3.8,5.2
			c7.2,0.6,14.5,0.3,21.9,0.3C543,106.9,543.5,84.1,542.8,61.3z M511.7,106.8c-4.9,5.4-12,8.1-19.2,7.5c-4.7-0.3-8.8-1.9-10.2-7.1
			c-1.5-6,0.3-11.5,5.5-13.9c4.6-2.1,9.6-3.3,14.6-4.7c4.7-1.4,9.5-2.5,14.8-3.8C517.7,92.5,517.7,100.4,511.7,106.8z"/>
		<path class="st0" d="M646.6,61.3c-0.3-11.2-5.3-21.1-16.6-25.7c-17.1-6.9-34.5-6.8-51.3,0.8c-11,4.9-17.4,18.3-14.9,28.7h22.7
			c5.1-13.2,16.5-18,28.5-12.1c5.2,2.5,7.7,8.8,4.1,12.7c-2.2,2.5-6,4.1-9.4,4.8c-7.9,1.8-16,2.7-24,4.3
			c-16.2,3.2-24.1,11.5-26,26.9c-2,16.1,6.7,27.7,22.8,30.4c0.9,0.2,1.8,0.7,2.7,1h13c7.7-2.9,15.4-5.8,22.9-8.6
			c0.9,1.3,2.2,5.1,3.8,5.2c7.2,0.6,14.5,0.3,21.9,0.3C646.8,106.9,647.3,84.1,646.6,61.3z M596.9,114.4c-6.1-0.2-9.8-2.8-10.9-7.5
			c-1.3-6.1,0.6-11.2,5.9-13.8c3.1-1.5,6.4-2.6,9.8-3.5c6.3-1.7,12.8-3.1,19.1-4.7C623.3,102.3,613.2,115,596.9,114.4L596.9,114.4z"
			/>
		<path class="st0" d="M443.9,109.1v20.7h-83.4c0-6.3-0.1-12.7,0.1-19c0-1.2,1.5-2.5,2.4-3.6c14.1-16.2,28.3-32.5,42.5-48.7
			c1-1.2,2-2.4,3.7-4.5h-45.3V33.9h78.7c0,6.6,0.2,13-0.1,19.4c-0.1,1.5-1.6,3.1-2.8,4.4c-14.5,16.2-29,32.3-43.5,48.4
			c-0.6,0.7-1.2,1.5-2.4,2.8h50.1L443.9,109.1z"/>
		<path class="st0" d="M722.2,31.4V57c-3.4-0.2-6.9-0.1-10.3,0.1c-13.3,1.5-19.8,8.8-19.8,22.1c-0.1,15,0,30.1,0,45.1v5.8h-25.5
			V34.2h23.5c0.1,2.9,0.3,5.8,0.5,10.1C698.9,33.2,709.5,30,722.2,31.4z"/>
	</g>
</g>
<g>
	<path class="st1" d="M94.6,0.3c7.4,0,14.9,0,22.3,0c3.5,0,6,2.4,6,5.9c0,15.2,0,30.3,0,45.5c0,1.8-0.7,3.2-2,4.5
		C107.5,69.8,93.9,83.4,80.4,97c-2.7,2.7-6,2.7-8.7,0c-15-15.1-30-30.2-44.9-45.3c-2.7-2.7-2.5-5.9,0.4-8.8
		C39.4,30.6,51.7,18.3,64,5.9c6.6-6.7,4.7-5.5,13.4-5.5C83.1,0.3,88.9,0.3,94.6,0.3z M88.8,44.7c0.4-0.4,0.8-0.7,1.1-1
		c3.2-3.1,4-6.8,2.9-11c-1.1-3.9-4-5.6-7.7-6.5c-1.2-0.3-2.4-0.4-3.6-0.5c-4.9,0-9.8,0-14.7-0.1c-1.6,0-2.1,0.6-2.1,2.1
		c0,3.9,0,7.7,0,11.6c0,3.1,0,3.1-3.1,3.5c-5.3,0.8-8.9,3.7-9.7,8.2c-0.4,2-0.3,4.1,0,6.2c0.6,4.8,0.6,4.8,5.5,4.8
		c0.2,0,0.4,0,0.6,0c2.2,0,2.6-0.5,1.8-2.5c-0.7-1.8-1.2-3.5-1.1-5.4c0.1-2.5,1.4-4.1,3.8-4.7c2-0.5,2.3-0.3,2.3,1.8
		c0,5.1,0,10.3,0,15.4c0,2.6,0.4,3.1,3,3.1c3,0,6-0.2,9,0c3.3,0.2,6.3-0.7,9.4-1.7c3.1-1,5.7-3,7.4-5.9
		C97.1,55.9,95.4,49.3,88.8,44.7z M99.2,16.8c0,4.2,3.5,7.6,7.7,7.5c3.9,0,7.5-3.5,7.5-7.2c-0.1-5-3-8.1-7.7-8.1
		C102.4,9.2,99.2,12.5,99.2,16.8z"/>
	<path class="st2" d="M88.8,44.7c6.6,4.6,8.3,11.2,4.8,17.4C91.9,65,89.3,67,86.2,68c-3,1-6.1,1.9-9.4,1.7c-3-0.2-6,0-9,0
		c-2.5,0-3-0.4-3-3.1c0-5.1,0-10.3,0-15.4c0-2.1-0.3-2.3-2.3-1.8c-2.4,0.6-3.7,2.2-3.8,4.7c-0.1,1.9,0.4,3.7,1.1,5.4
		c0.8,2,0.5,2.4-1.8,2.5c-0.2,0-0.4,0-0.6,0c-4.9,0-4.9,0-5.5-4.8c-0.2-2.1-0.3-4.1,0-6.2c0.8-4.5,4.4-7.4,9.7-8.2
		c3.1-0.5,3.1-0.5,3.1-3.5c0-3.9,0-7.7,0-11.6c0-1.5,0.5-2.2,2.1-2.1c4.9,0.1,9.8,0,14.7,0.1c1.2,0,2.4,0.2,3.6,0.5
		c3.6,0.9,6.6,2.7,7.7,6.5c1.1,4.2,0.3,7.9-2.9,11C89.6,44,89.2,44.3,88.8,44.7z M72.3,55.7c0,1.8,0,3.6,0,5.4
		c0,0.6-0.2,1.4,0.7,1.4c3.7-0.1,7.4,0.5,10.9-1.1c2.8-1.2,4-3.8,3.4-7.2c-0.4-2.9-2.2-4.7-5.1-5c-2.9-0.3-5.7-0.2-8.6-0.4
		c-1.1-0.1-1.4,0.4-1.4,1.4C72.4,52.1,72.3,53.9,72.3,55.7z M72.3,37.2c0,1.3,0,2.7,0,4c0,0.5-0.1,1.3,0.6,1.2
		c3.4-0.1,6.9,0.7,10.1-0.8c2.1-1,2.9-3.4,2.4-6c-0.4-2.1-1.7-3-4.2-3.2c-2-0.1-4-0.3-6-0.3c-3.3,0-2.8-0.3-2.8,2.7
		C72.3,35.6,72.3,36.4,72.3,37.2z"/>
	<path class="st2" d="M99.2,16.8c0-4.4,3.2-7.6,7.5-7.7c4.7,0,7.7,3,7.7,8.1c0,3.7-3.6,7.1-7.5,7.2C102.7,24.4,99.2,21,99.2,16.8z"
		/>
	<path class="st1" d="M72.3,55.7c0-1.8,0-3.6,0-5.4c0-1,0.3-1.5,1.4-1.4c2.9,0.1,5.8,0.1,8.6,0.4c3,0.3,4.7,2.1,5.1,5
		c0.5,3.3-0.7,5.9-3.4,7.2c-3.5,1.6-7.2,1-10.9,1.1c-0.9,0-0.7-0.8-0.7-1.4C72.3,59.3,72.3,57.5,72.3,55.7z"/>
	<path class="st1" d="M72.3,37.2c0-0.8,0-1.6,0-2.4c0-3-0.5-2.7,2.8-2.7c2,0,4,0.1,6,0.3c2.6,0.2,3.8,1.2,4.2,3.2
		c0.6,2.6-0.3,5.1-2.4,6c-3.2,1.5-6.7,0.7-10.1,0.8c-0.8,0-0.6-0.7-0.6-1.2C72.3,39.8,72.3,38.5,72.3,37.2z"/>
</g>
</svg>
