<svg xmlns="http://www.w3.org/2000/svg" viewBox="0 0 697.85 133.1"><defs><style>.cls-1{fill:#282b30;}.cls-2{fill:#4aa0d5;}.cls-3{fill:#fff;}</style></defs><g id="Layer_2" data-name="Layer 2"><g id="Layer_1-2" data-name="Layer 1"><path class="cls-1" d="M220.75,80c-2.3-9.3-8-16-17.2-19.8,9.8-8.3,12.2-11.5,13.7-17.6,5.4-21.3-9.1-41.5-31.5-42.2s-44.9-.3-67.3-.2a5,5,0,0,0-5,5v125q30.45,0,60.8-.1a98.61,98.61,0,0,0,14.4-1C218.85,124.2,225.65,100.1,220.75,80Zm-79.7-57c12.6,0,24.9-.3,37.2.1,8.7.3,13,5.1,13.2,13.1.2,8.2-3.9,13.6-12.7,14.1-12.4.7-24.9.2-37.7.2Zm37.4,84.5c-12.3.4-24.6.1-37.5.1V73.3h4c11.1,0,22.3-.2,33.4.1,10.8.3,16.7,6,16.8,15.5C195.35,99,188.45,107.1,178.45,107.5Z"/><path class="cls-1" d="M319.65,61.3c-.3-11.2-5.3-21.1-16.6-25.7-17.1-6.9-34.5-6.8-51.3.8-10.9,4.9-17.4,18.3-14.9,28.7h22.7c5.1-13.2,16.5-18,28.5-12.1,5.21,2.5,7.71,8.8,4.1,12.7-2.2,2.5-6,4.1-9.39,4.8-7.9,1.8-16,2.7-24,4.3-16.21,3.2-24.11,11.5-26,26.9-2,16.1,6.7,27.7,22.79,30.4.9.2,1.8.7,2.71,1h13c7.7-2.9,15.39-5.8,22.89-8.6.9,1.3,2.21,5.1,3.8,5.2,7.2.6,14.5.3,21.9.3C319.85,106.8,320.35,84,319.65,61.3Zm-28.2,41c-4.1,9-12.4,12.4-22.1,12-4.7-.2-8.8-1.9-10.1-7.1-1.5-5.8.2-11.3,5.1-13.7,4.6-2.2,9.6-3.4,14.5-4.9s9.9-2.5,16.5-4.2C294.05,90.7,294,97,291.45,102.3Z"/><path class="cls-1" d="M518.45,61.3c-.3-11.2-5.3-21.1-16.59-25.7-17.1-6.9-34.5-6.8-51.3.8-11,4.9-17.4,18.3-14.9,28.7h22.7c5.1-13.2,16.5-18,28.5-12.1,5.2,2.5,7.7,8.8,4.09,12.7-2.2,2.5-6,4.1-9.3,4.8-7.9,1.8-16,2.7-24,4.3-16.2,3.2-24.1,11.5-26,26.9-2,16.1,6.71,27.7,22.8,30.4.9.2,1.8.7,2.7,1h13c7.71-2.9,15.41-5.8,22.8-8.6.91,1.3,2.2,5.1,3.8,5.2,7.2.6,14.5.3,21.9.3C518.65,106.8,519.15,84,518.45,61.3Zm-31.1,45.5a23.25,23.25,0,0,1-19.2,7.5c-4.7-.3-8.8-1.9-10.2-7.1-1.5-6,.3-11.5,5.5-13.9,4.6-2.1,9.6-3.3,14.6-4.7,4.7-1.4,9.5-2.5,14.8-3.8C493.35,92.5,493.35,100.4,487.35,106.8Z"/><path class="cls-1" d="M622.25,61.3c-.3-11.2-5.3-21.1-16.6-25.7-17.09-6.9-34.5-6.8-51.29.8-11,4.9-17.41,18.3-14.91,28.7h22.7c5.1-13.2,16.5-18,28.5-12.1,5.21,2.5,7.71,8.8,4.1,12.7-2.2,2.5-6,4.1-9.4,4.8-7.9,1.8-16,2.7-24,4.3-16.2,3.2-24.1,11.5-26,26.9-2,16.1,6.7,27.7,22.8,30.4.9.2,1.8.7,2.7,1h13c7.7-2.9,15.4-5.8,22.9-8.6.9,1.3,2.2,5.1,3.8,5.2,7.2.6,14.5.3,21.9.3C622.45,106.8,623,84,622.25,61.3Zm-49.7,53c-6.1-.2-9.8-2.8-10.9-7.5-1.3-6.1.6-11.2,5.9-13.8a54.33,54.33,0,0,1,9.8-3.5c6.3-1.7,12.8-3.1,19.1-4.7C599,102.3,588.85,115,572.55,114.3Z"/><path class="cls-1" d="M419.55,109.1v20.7h-83.4c0-6.3-.1-12.7.1-19,0-1.2,1.5-2.5,2.4-3.6,14.1-16.2,28.3-32.5,42.5-48.7,1-1.2,2-2.4,3.7-4.5h-45.3V34h78.7c0,6.6.2,13-.1,19.4-.1,1.5-1.6,3.1-2.8,4.4q-21.75,24.3-43.5,48.4c-.6.7-1.2,1.5-2.4,2.8h50.1Z"/><path class="cls-1" d="M697.85,31.4V57a88.28,88.28,0,0,0-10.3.1c-13.3,1.5-19.8,8.8-19.8,22.1-.1,15,0,30.1,0,45.1v5.8h-25.5v-96h23.5c.1,2.9.3,5.8.5,10.1C674.55,33.1,685.15,30,697.85,31.4Z"/><path class="cls-2" d="M92.09.63H46.83a5.7,5.7,0,0,0-4,1.69L1.67,43.52a5.7,5.7,0,0,0,0,8.07L46.94,97A5.72,5.72,0,0,0,55,97L96.15,55.85a5.73,5.73,0,0,0,1.66-4V6.35A5.71,5.71,0,0,0,92.09.63Zm-9.78,23.9a7.76,7.76,0,0,1-8.2-7.1c-.28-4.37,3.29-8.14,7.2-8,4.77-.31,7.75,2.59,8,7.79C89.54,20.71,86.18,24.21,82.31,24.53Z"/><path class="cls-3" d="M50.61,68.24a4.93,4.93,0,0,0,3.88,1.68c5,.53,7.69-2.06,8.61-6.7a14.56,14.56,0,0,0-.92-9,6.61,6.61,0,0,0-9.44-3c-.84.46-1.75.91-2.9,1.52a6.42,6.42,0,0,1,.54-1.82c3.5-4.8,7.08-9.53,10.81-14.4-5.18,0-10.2.07-15.46.07V37.7c0,4.87.08,9.75.08,14.55,0,2,.83,3.35,2.36,3.88s3-.23,4.19-1.29c.53-.46,1-1,1.52-1.45a8.1,8.1,0,0,1,1-.69c.23.54.84,1.15.76,1.6a6.33,6.33,0,0,1-5.56,4.88,17.44,17.44,0,0,1-5.25-.53c-3.28-.77-4.42-3.58-4.5-6.56-.07-5.18-.07-10.36-.07-15.61H32.48v-2.9h7.77c0-2.13.07-4.19-.08-6.24,0-.46-.69-.84-1-1.3A7.44,7.44,0,0,1,38.26,24c2.29,0,4.58-.84,6.63.38a2,2,0,0,1,.84,1.37c.08,2.51.08,5,.08,7.69h1.52c5.48,0,11.05.08,16.53-.15a4.27,4.27,0,0,1,4.27,2.13c-4,4-8,8.08-12,12.11,3.12-.68,5.64.46,8.07,2.06a10.45,10.45,0,0,1,4.35,6.93,16.44,16.44,0,0,1-.16,7.7,10.72,10.72,0,0,1-8.68,8.22A15.94,15.94,0,0,1,50.83,72c-2.89-1-5.33-5-4.8-8a3.31,3.31,0,0,1,3.2-2.52,3.2,3.2,0,0,1,3.36,2.21C52.89,65.73,52.36,67.25,50.61,68.24Z"/></g></g></svg>